<?xml version="1.0" encoding="UTF-8"?>
<!DOCTYPE svg PUBLIC "-//W3C//DTD SVG 1.1//EN" "http://www.w3.org/Graphics/SVG/1.1/DTD/svg11.dtd">
<svg xmlns="http://www.w3.org/2000/svg" version="1.1" width="200px" height="200px" style="shape-rendering:geometricPrecision; text-rendering:geometricPrecision; image-rendering:optimizeQuality; fill-rule:evenodd; clip-rule:evenodd" xmlns:xlink="http://www.w3.org/1999/xlink">
<g><path style="opacity:0.991" fill="#18b1ff" d="M 85.5,-0.5 C 94.8333,-0.5 104.167,-0.5 113.5,-0.5C 161.167,9.16667 189.833,37.8333 199.5,85.5C 199.5,94.8333 199.5,104.167 199.5,113.5C 189.833,161.167 161.167,189.833 113.5,199.5C 104.167,199.5 94.8333,199.5 85.5,199.5C 37.8333,189.833 9.16667,161.167 -0.5,113.5C -0.5,104.167 -0.5,94.8333 -0.5,85.5C 9.16667,37.8333 37.8333,9.16667 85.5,-0.5 Z"/></g>
<g><path style="opacity:1" fill="#f7fcff" d="M 130.5,51.5 C 140.504,50.3215 146.171,54.6548 147.5,64.5C 147.448,67.9368 146.281,70.9368 144,73.5C 131.5,86 119,98.5 106.5,111C 99.6274,113.469 92.6274,115.136 85.5,116C 83.8757,114.883 82.8757,113.383 82.5,111.5C 83.8696,105.02 85.7029,98.6867 88,92.5C 101.758,78.2387 115.925,64.572 130.5,51.5 Z"/></g>
<g><path style="opacity:1" fill="#f6fbff" d="M 67.5,59.5 C 78.505,59.3335 89.505,59.5002 100.5,60C 103.932,62.367 104.265,65.0337 101.5,68C 90.8333,68.3333 80.1667,68.6667 69.5,69C 69,69.5 68.5,70 68,70.5C 67.0246,90.5896 67.3579,110.59 69,130.5C 88.7601,131.659 108.593,131.826 128.5,131C 129,130.5 129.5,130 130,129.5C 130.333,118.833 130.667,108.167 131,97.5C 133.966,94.7348 136.633,95.0682 139,98.5C 139.667,108.833 139.667,119.167 139,129.5C 137.594,134.573 134.428,138.073 129.5,140C 109.167,140.667 88.8333,140.667 68.5,140C 64,138.167 60.8333,135 59,130.5C 58.3333,110.167 58.3333,89.8333 59,69.5C 60.9779,65.3619 63.8112,62.0286 67.5,59.5 Z"/></g>
<g><path style="opacity:1" fill="#21b3ff" d="M 132.5,60.5 C 137,60.1638 138.833,62.1638 138,66.5C 125.833,78.6667 113.667,90.8333 101.5,103C 94.4043,107.872 92.2377,106.372 95,98.5C 107.702,85.9652 120.202,73.2985 132.5,60.5 Z"/></g>
</svg>
