<?xml version="1.0" encoding="UTF-8"?>
<!DOCTYPE svg PUBLIC "-//W3C//DTD SVG 1.1//EN" "http://www.w3.org/Graphics/SVG/1.1/DTD/svg11.dtd">
<svg xmlns="http://www.w3.org/2000/svg" version="1.1" width="200px" height="200px" style="shape-rendering:geometricPrecision; text-rendering:geometricPrecision; image-rendering:optimizeQuality; fill-rule:evenodd; clip-rule:evenodd" xmlns:xlink="http://www.w3.org/1999/xlink">
<g><path style="opacity:0.994" fill="#ffcc2b" d="M 85.5,-0.5 C 94.8333,-0.5 104.167,-0.5 113.5,-0.5C 161.167,9.16667 189.833,37.8333 199.5,85.5C 199.5,94.8333 199.5,104.167 199.5,113.5C 189.833,161.167 161.167,189.833 113.5,199.5C 104.167,199.5 94.8333,199.5 85.5,199.5C 37.8333,189.833 9.16667,161.167 -0.5,113.5C -0.5,104.167 -0.5,94.8333 -0.5,85.5C 9.16667,37.8333 37.8333,9.16667 85.5,-0.5 Z"/></g>
<g><path style="opacity:1" fill="#fffefc" d="M 61.5,50.5 C 88.1687,50.3334 114.835,50.5 141.5,51C 146.91,52.7425 150.744,56.2425 153,61.5C 153.667,81.1667 153.667,100.833 153,120.5C 151.719,126.904 147.885,130.737 141.5,132C 120.167,132.333 98.8333,132.667 77.5,133C 70.8333,139.667 64.1667,146.333 57.5,153C 54.6917,153.92 52.5251,153.087 51,150.5C 50.3333,120.833 50.3333,91.1667 51,61.5C 53.3566,56.6455 56.8566,52.9788 61.5,50.5 Z"/></g>
<g><path style="opacity:1" fill="#ffcc2d" d="M 63.5,59.5 C 89.9224,59.018 116.256,59.518 142.5,61C 143.126,61.7504 143.626,62.5838 144,63.5C 144.167,72.8333 144.333,82.1667 144.5,91.5C 144.643,101.595 144.143,111.595 143,121.5C 142.5,122 142,122.5 141.5,123C 118.833,123.333 96.1667,123.667 73.5,124C 69,128.5 64.5,133 60,137.5C 59.3333,112.5 59.3333,87.5 60,62.5C 61.1451,61.3636 62.3117,60.3636 63.5,59.5 Z"/></g>
<g><path style="opacity:1" fill="#fffdf9" d="M 97.5,70.5 C 101.605,70.2338 105.605,70.7338 109.5,72C 115.109,75.2769 116.942,80.1103 115,86.5C 112.458,89.6168 109.458,92.2834 106,94.5C 105.506,96.1341 105.34,97.8008 105.5,99.5C 102.5,99.5 99.5,99.5 96.5,99.5C 96.3367,97.1432 96.5034,94.8098 97,92.5C 99.3494,89.9832 101.849,87.6499 104.5,85.5C 106.882,79.3802 104.882,77.2135 98.5,79C 97.8333,80 97.1667,81 96.5,82C 93.5184,82.498 90.5184,82.6646 87.5,82.5C 88.302,76.3666 91.6353,72.3666 97.5,70.5 Z"/></g>
<g><path style="opacity:1" fill="#fffbf2" d="M 98.5,102.5 C 102.747,102.118 105.414,103.951 106.5,108C 102.41,115.352 98.7438,115.185 95.5,107.5C 96.0924,105.577 97.0924,103.911 98.5,102.5 Z"/></g>
</svg>
