<?xml version="1.0" encoding="UTF-8"?>
<!DOCTYPE svg PUBLIC "-//W3C//DTD SVG 1.1//EN" "http://www.w3.org/Graphics/SVG/1.1/DTD/svg11.dtd">
<svg xmlns="http://www.w3.org/2000/svg" version="1.1" width="200px" height="200px" style="shape-rendering:geometricPrecision; text-rendering:geometricPrecision; image-rendering:optimizeQuality; fill-rule:evenodd; clip-rule:evenodd" xmlns:xlink="http://www.w3.org/1999/xlink">
<g><path style="opacity:0.992" fill="#18b1ff" d="M 85.5,-0.5 C 94.8333,-0.5 104.167,-0.5 113.5,-0.5C 161.167,9.16667 189.833,37.8333 199.5,85.5C 199.5,94.8333 199.5,104.167 199.5,113.5C 189.833,161.167 161.167,189.833 113.5,199.5C 104.167,199.5 94.8333,199.5 85.5,199.5C 37.8333,189.833 9.16667,161.167 -0.5,113.5C -0.5,104.167 -0.5,94.8333 -0.5,85.5C 9.16667,37.8333 37.8333,9.16667 85.5,-0.5 Z"/></g>
<g><path style="opacity:1" fill="#fdfeff" d="M 136.5,99.5 C 136.827,94.7863 136.493,90.1196 135.5,85.5C 134.893,85.6236 134.56,85.9569 134.5,86.5C 124.672,97.1611 114.339,107.328 103.5,117C 102.167,117.667 100.833,117.667 99.5,117C 93.6236,110.788 87.4569,104.955 81,99.5C 71.2084,108.29 61.7084,117.457 52.5,127C 50.5,127.667 48.5,127.667 46.5,127C 45.3895,124.263 45.2228,121.429 46,118.5C 56.8333,107.667 67.6667,96.8333 78.5,86C 80.6354,85.3653 82.6354,85.6986 84.5,87C 90.3333,92.8333 96.1667,98.6667 102,104.5C 110.369,96.2983 118.536,87.965 126.5,79.5C 127.043,79.44 127.376,79.1067 127.5,78.5C 123.217,77.5078 118.884,77.1744 114.5,77.5C 110.96,74.7452 110.627,71.5786 113.5,68C 123.833,67.3333 134.167,67.3333 144.5,68C 145.653,79.0902 145.82,90.2569 145,101.5C 141.509,103.228 138.675,102.562 136.5,99.5 Z"/></g>
<g><path style="opacity:1" fill="#88d6ff" d="M 114.5,77.5 C 118.884,77.1744 123.217,77.5078 127.5,78.5C 127.376,79.1067 127.043,79.44 126.5,79.5C 122.5,78.8333 118.5,78.1667 114.5,77.5 Z"/></g>
<g><path style="opacity:1" fill="#aae2ff" d="M 134.5,86.5 C 134.56,85.9569 134.893,85.6236 135.5,85.5C 136.493,90.1196 136.827,94.7863 136.5,99.5C 135.833,95.1667 135.167,90.8333 134.5,86.5 Z"/></g>
</svg>
