<?xml version="1.0" encoding="UTF-8"?>
<!DOCTYPE svg PUBLIC "-//W3C//DTD SVG 1.1//EN" "http://www.w3.org/Graphics/SVG/1.1/DTD/svg11.dtd">
<svg xmlns="http://www.w3.org/2000/svg" version="1.1" width="200px" height="200px" style="shape-rendering:geometricPrecision; text-rendering:geometricPrecision; image-rendering:optimizeQuality; fill-rule:evenodd; clip-rule:evenodd" xmlns:xlink="http://www.w3.org/1999/xlink">
<g><path style="opacity:0.994" fill="#f05737" d="M 85.5,-0.5 C 94.8333,-0.5 104.167,-0.5 113.5,-0.5C 161.167,9.16667 189.833,37.8333 199.5,85.5C 199.5,94.8333 199.5,104.167 199.5,113.5C 189.833,161.167 161.167,189.833 113.5,199.5C 104.167,199.5 94.8333,199.5 85.5,199.5C 37.8333,189.833 9.16667,161.167 -0.5,113.5C -0.5,104.167 -0.5,94.8333 -0.5,85.5C 9.16667,37.8333 37.8333,9.16667 85.5,-0.5 Z"/></g>
<g><path style="opacity:1" fill="#fffaf9" d="M 91.5,47.5 C 122.502,46.3993 142.002,60.7326 150,90.5C 151.588,121.504 137.421,141.004 107.5,149C 76.196,151.024 56.696,136.857 49,106.5C 47.1875,75.1672 61.3542,55.5005 91.5,47.5 Z"/></g>
<g><path style="opacity:1" fill="#f05838" d="M 92.5,57.5 C 117.278,56.4625 133.111,67.7958 140,91.5C 141.62,117.44 129.786,133.273 104.5,139C 79.4191,139.923 64.2525,128.09 59,103.5C 58.2081,79.4051 69.3748,64.0717 92.5,57.5 Z"/></g>
<g><path style="opacity:1" fill="#fefdfc" d="M 96.5,66.5 C 99.3646,66.0548 101.865,66.7215 104,68.5C 104.333,77.5 104.667,86.5 105,95.5C 110.667,98.5 116.333,101.5 122,104.5C 123.668,110.493 121.502,112.993 115.5,112C 108.676,108.755 102.009,105.255 95.5,101.5C 94.3561,90.5466 94.1895,79.5466 95,68.5C 95.7172,67.9558 96.2172,67.2891 96.5,66.5 Z"/></g>
</svg>
