<?xml version="1.0" encoding="UTF-8"?>
<!DOCTYPE svg PUBLIC "-//W3C//DTD SVG 1.1//EN" "http://www.w3.org/Graphics/SVG/1.1/DTD/svg11.dtd">
<svg xmlns="http://www.w3.org/2000/svg" version="1.1" width="200px" height="200px" style="shape-rendering:geometricPrecision; text-rendering:geometricPrecision; image-rendering:optimizeQuality; fill-rule:evenodd; clip-rule:evenodd" xmlns:xlink="http://www.w3.org/1999/xlink">
<g><path style="opacity:0.995" fill="#f05737" d="M 85.5,-0.5 C 94.8333,-0.5 104.167,-0.5 113.5,-0.5C 161.167,9.16667 189.833,37.8333 199.5,85.5C 199.5,94.8333 199.5,104.167 199.5,113.5C 189.833,161.167 161.167,189.833 113.5,199.5C 104.167,199.5 94.8333,199.5 85.5,199.5C 37.8333,189.833 9.16667,161.167 -0.5,113.5C -0.5,104.167 -0.5,94.8333 -0.5,85.5C 9.16667,37.8333 37.8333,9.16667 85.5,-0.5 Z"/></g>
<g><path style="opacity:1" fill="#fff4f2" d="M 70.5,51.5 C 88.5031,51.3334 106.503,51.5001 124.5,52C 127,53.1667 128.833,55 130,57.5C 130.5,64.4921 130.666,71.4921 130.5,78.5C 127.167,78.5 123.833,78.5 120.5,78.5C 120.5,77.1667 120.5,75.8333 120.5,74.5C 105.5,74.5 90.5,74.5 75.5,74.5C 75.5,92.5 75.5,110.5 75.5,128.5C 90.5,128.5 105.5,128.5 120.5,128.5C 120.5,127.167 120.5,125.833 120.5,124.5C 123.833,124.5 127.167,124.5 130.5,124.5C 130.666,131.508 130.5,138.508 130,145.5C 128.878,147.624 127.378,149.457 125.5,151C 107.167,151.667 88.8333,151.667 70.5,151C 69.3333,149.833 68.1667,148.667 67,147.5C 65.3495,117.586 65.0161,87.586 66,57.5C 67.332,55.34 68.832,53.34 70.5,51.5 Z"/></g>
<g><path style="opacity:1" fill="#ef5736" d="M 75.5,60.5 C 90.5,60.5 105.5,60.5 120.5,60.5C 120.5,61.8333 120.5,63.1667 120.5,64.5C 105.5,64.5 90.5,64.5 75.5,64.5C 75.5,63.1667 75.5,61.8333 75.5,60.5 Z"/></g>
<g><path style="opacity:1" fill="#fff8f7" d="M 140.5,81.5 C 143.975,82.8018 146.142,85.1351 147,88.5C 136.667,98.8333 126.333,109.167 116,119.5C 110,113.5 104,107.5 98,101.5C 97.9895,98.1484 99.6562,95.8151 103,94.5C 107.622,98.1192 111.955,102.119 116,106.5C 124.369,98.2983 132.536,89.965 140.5,81.5 Z"/></g>
<g><path style="opacity:1" fill="#ef5736" d="M 75.5,138.5 C 90.5,138.5 105.5,138.5 120.5,138.5C 120.5,139.833 120.5,141.167 120.5,142.5C 105.5,142.5 90.5,142.5 75.5,142.5C 75.5,141.167 75.5,139.833 75.5,138.5 Z"/></g>
</svg>
