<?xml version="1.0" encoding="UTF-8"?>
<!DOCTYPE svg PUBLIC "-//W3C//DTD SVG 1.1//EN" "http://www.w3.org/Graphics/SVG/1.1/DTD/svg11.dtd">
<svg xmlns="http://www.w3.org/2000/svg" version="1.1" width="200px" height="200px" style="shape-rendering:geometricPrecision; text-rendering:geometricPrecision; image-rendering:optimizeQuality; fill-rule:evenodd; clip-rule:evenodd" xmlns:xlink="http://www.w3.org/1999/xlink">
<g><path style="opacity:0.995" fill="#ffcc2b" d="M 85.5,-0.5 C 94.8333,-0.5 104.167,-0.5 113.5,-0.5C 161.167,9.16667 189.833,37.8333 199.5,85.5C 199.5,94.8333 199.5,104.167 199.5,113.5C 189.833,161.167 161.167,189.833 113.5,199.5C 104.167,199.5 94.8333,199.5 85.5,199.5C 37.8333,189.833 9.16667,161.167 -0.5,113.5C -0.5,104.167 -0.5,94.8333 -0.5,85.5C 9.16667,37.8333 37.8333,9.16667 85.5,-0.5 Z"/></g>
<g><path style="opacity:1" fill="#fffdfa" d="M 97.5,51.5 C 123.405,50.5233 139.572,62.5233 146,87.5C 147.278,112.207 136.111,128.041 112.5,135C 99.9468,137.59 88.6135,135.09 78.5,127.5C 72.3479,133.152 66.3479,138.985 60.5,145C 53.8478,145.517 51.6811,142.684 54,136.5C 59.6816,130.985 65.1816,125.319 70.5,119.5C 61.6887,105.604 60.1887,90.9377 66,75.5C 73.165,63.0135 83.665,55.0135 97.5,51.5 Z"/></g>
<g><path style="opacity:1" fill="#ffcc2d" d="M 98.5,62.5 C 123.318,62.4836 135.484,74.8169 135,99.5C 129.154,119.184 115.987,127.351 95.5,124C 77.8121,117.13 70.6454,104.297 74,85.5C 78.0725,73.3951 86.2392,65.7284 98.5,62.5 Z"/></g>
</svg>
